<svg xmlns="http://www.w3.org/2000/svg" viewBox="0 0 100 82" fill="#fff">
 <path d="M8.933 52.93l5.377 2.532s-1.347 1.069-2.337 3.114c-.978 2.018-1.012 4.102-1.012 4.102L0 57.489v-8.743L50.116 23.17l23.619 12.109-4.444 2.094-4.444 2.094-14.739-7.554L8.933 52.93z"/>
 <path fill-rule="evenodd" d="M88.122 42.654l-8.879 4.194 11.905 6.101-40.947 19.378-20.958-9.905c-.111-1.34-.554-2.673-1.367-3.862-1.556-2.279-4.078-3.506-6.643-3.506-1.561 0-3.137.454-4.523 1.4-3.664 2.502-4.606 7.502-2.105 11.167 2.502 3.664 7.502 4.606 11.166 2.105l24.335 11.439L100 57.618V48.64l-11.878-5.986zM21.153 67.675c.05 0 .1-.001.15-.002 2.544-.081 4.539-2.209 4.459-4.752-.081-2.543-2.209-4.54-4.753-4.458-2.543.081-4.539 2.208-4.458 4.752.079 2.493 2.126 4.46 4.602 4.46z" clip-rule="evenodd"/>
 <path fill-rule="evenodd" d="M50.109 8.875l21.027 10.792c-.012 1.497.387 3.015 1.252 4.371 2.383 3.743 7.351 4.845 11.093 2.46 3.742-2.384 4.844-7.351 2.46-11.093-2.333-3.662-7.134-4.787-10.845-2.601L50.116 0 0 25.577l.033 8.734 11.924 5.64 8.913-4.563-11.916-5.615L50.109 8.875zm33.748 10.871c0-2.544-2.063-4.607-4.608-4.607-2.545 0-4.608 2.063-4.608 4.607 0 2.546 2.063 4.608 4.608 4.608 2.544 0 4.608-2.062 4.608-4.608z" clip-rule="evenodd"/>
 <path d="M88.522 24.016c.948-2.146.921-3.848.921-3.848l10.541 5.238v8.979l-49.876 23.61-23.824-11.267 8.908-4.59 15.267 6.878 40.685-19.234-4.983-2.552c.001 0 1.361-.95 2.361-3.214z"/>
</svg>